<svg width="481" height="369" viewBox="0 0 481 369" fill="none" xmlns="http://www.w3.org/2000/svg">
<mask id="mask0_1_402" style="mask-type:alpha" maskUnits="userSpaceOnUse" x="1" y="0" width="480" height="361">
<rect x="480.5" y="0.5" width="360" height="479" transform="rotate(90 480.5 0.5)" fill="url(#paint0_linear_1_402)" stroke="#6246E5"/>
</mask>
<g mask="url(#mask0_1_402)">
<path d="M130.995 461.92C61.6624 461.92 5.45582 405.635 5.45582 336.202C5.45582 266.769 61.6624 210.484 130.995 210.484C200.328 210.484 256.535 266.769 256.535 336.202C256.535 405.635 200.328 461.92 130.995 461.92Z" stroke="#E5E5E5"/>
<path d="M144.263 466.902C66.6866 466.902 3.79751 403.925 3.79751 326.237C3.79751 248.549 66.6866 185.572 144.263 185.572C221.839 185.572 284.728 248.549 284.728 326.237C284.728 403.925 221.839 466.902 144.263 466.902Z" stroke="#E5E5E5"/>
<path d="M155.042 471.885C70.1388 471.885 1.30977 402.959 1.30978 317.934C1.30978 232.909 70.1388 163.983 155.042 163.983C239.946 163.983 308.775 232.909 308.775 317.934C308.775 402.959 239.946 471.885 155.042 471.885Z" stroke="#E5E5E5"/>
<path d="M170.798 475.206C79.4827 475.206 5.45623 401.076 5.45623 309.63C5.45623 218.184 79.4827 144.054 170.798 144.054C262.112 144.054 336.139 218.184 336.139 309.63C336.139 401.076 262.112 475.206 170.798 475.206Z" stroke="#E5E5E5"/>
<path d="M186.138 478.527C88.6404 478.527 9.60207 399.378 9.60207 301.741C9.60208 204.104 88.6404 124.955 186.138 124.955C283.635 124.955 362.673 204.104 362.673 301.741C362.673 399.378 283.635 478.527 186.138 478.527Z" stroke="#E5E5E5"/>
<path d="M203.551 482.68C96.4366 482.68 9.60207 395.723 9.60207 288.456C9.60208 181.188 96.4366 94.2314 203.551 94.2314C310.665 94.2314 397.5 181.188 397.5 288.456C397.5 395.723 310.665 482.68 203.551 482.68Z" stroke="#E5E5E5"/>
</g>
<defs>
<linearGradient id="paint0_linear_1_402" x1="737.035" y1="13.4669" x2="488.704" y2="484.066" gradientUnits="userSpaceOnUse">
<stop stop-color="#747DEF"/>
<stop offset="1" stop-color="#5E3BE1"/>
</linearGradient>
</defs>
</svg>
